<svg width="132" height="132" viewBox="0 0 261 132" fill="none" xmlns="http://www.w3.org/2000/svg">
<path fill-rule="evenodd" clip-rule="evenodd" d="M27 87C22.0294 87 18 82.9706 18 78V42C18 37.0294 13.9706 33 9 33C4.02943 33 0 37.0294 0 42V96C0 100.971 4.02943 105 9 105H117C121.971 105 126 100.971 126 96V60C126 55.0294 130.029 51 135 51H238.5C240.985 51 243 53.0147 243 55.5C243 57.9853 240.985 60 238.5 60H144C139.029 60 135 64.0294 135 69V96C135 100.971 139.029 105 144 105H252C256.971 105 261 100.971 261 96V42C261 37.0294 256.971 33 252 33H117C112.029 33 108 37.0294 108 42V78C108 82.9706 103.971 87 99 87H81C76.0294 87 72 82.9706 72 78V42C72 37.0294 67.9706 33 63 33C58.0294 33 54 37.0294 54 42V78C54 82.9706 49.9706 87 45 87H27ZM243 82.5C243 84.9853 240.985 87 238.5 87H157.5C155.015 87 153 84.9853 153 82.5C153 80.0147 155.015 78 157.5 78H238.5C240.985 78 243 80.0147 243 82.5Z" fill="white"/>
</svg>
